<svg version="1" xmlns="http://www.w3.org/2000/svg" width="933.333" height="933.333" viewBox="0 0 700.000000 700.000000"><path d="M232.3 2.1c-7.4 2.7-41.3 16.8-46 19.1-12.8 6.3-18.6 19-15.5 33.8 1.7 8 9.2 41.4 10.2 45.5 1.5 6.2 1.3 6.8-4.3 10.5-9.1 6.1-22.8 18-35.2 30.4-14.3 14.4-19.4 20.2-27.7 31.9-6.8 9.4-6.3 9.2-14.8 7.2-1.4-.3-4.3-1-6.5-1.4-2.2-.5-9.4-2.1-16-3.6-6.6-1.4-13.1-2.8-14.4-3.1-1.3-.3-5-1.1-8.3-1.9-7-1.6-5.6-1.6-12.3 0-6.7 1.5-14 6.3-17.6 11.3-1.4 2.1-7.3 14.9-13 28.7C2.2 231.5.5 236.4.4 241.4c-.3 6.9 1.2 12.5 4.9 18.2 2.6 4.2 5 5.8 45.6 31.6l8.9 5.7-.8 3.8c-.5 2.1-1.1 5.9-1.4 8.5-.3 2.7-.8 6.7-1.1 9-.3 2.4-.8 6.8-1 9.8-.5 6.4-.6 39.1-.1 43.5.2 1.6.6 5.7 1 9 1.5 13 1.8 15.1 2.6 18.3 1.1 4.1.9 4.2-13 13.1-37.9 24.2-37.9 24.2-40.9 28.7-3.6 5.6-5.5 13-4.8 19.5.6 5.4 19.4 52.2 23.1 57.4 6.4 9.1 18.9 14.6 28.4 12.4 2-.4 4.8-1 6.2-1.3 1.4-.2 5.4-1.1 9-2 3.6-.8 7.6-1.7 9-2 1.4-.2 6.3-1.4 11-2.5 20.9-5 19.9-5 24.3 1.3 14.5 21.2 48.1 54.6 67.3 66.9 3.8 2.4 3.8 2.4 1 14.7-.8 3.6-2.6 11.9-4.1 18.5-1.4 6.6-2.8 12.7-3 13.5-.2.8-1 4.5-1.8 8.2-2.4 11.1.3 20.7 7.9 28.1 4.4 4.3 4.3 4.2 27.9 14 32.1 13.3 31.2 13 38 12.4 7.3-.5 13.9-3.3 18.1-7.5 2.5-2.4 28.4-41.9 32.9-49.9.8-1.5 1.8-1.7 5.5-1.2 2.5.4 8.8 1.2 14 1.8 5.2.7 11.1 1.4 13 1.7 4.1.6 36.8.6 42.2 0 2-.2 6.5-.7 10-1.1 11.6-1.2 13.3-1.4 18.1-2.3l4.8-1 4.6 7.2c2.5 3.9 9.5 14.9 15.6 24.4 12.3 19.5 15.7 23.3 23.2 26.1 10.1 3.8 14.7 2.8 43-8.9 29.1-12 31.9-13.7 36.8-22 4.4-7.6 4.9-13.5 2.3-24.5-.3-1.1-1.4-6.3-2.5-11.5s-3.4-15.5-5.1-22.8c-1.6-7.3-3-13.7-3-14.2 0-.4 5.7-5.2 12.8-10.7 15.7-12.1 39.8-36.1 51.4-51.1 4.8-6.2 9.2-12 9.7-12.9 1-1.9-1-2.2 34.1 5.8 25.6 5.8 30.7 6.1 38.3 2.6 8.7-4.2 13.1-9.4 18.1-22.2 1.5-3.9 3.4-8.4 4.1-10 .8-1.7 4.1-9.7 7.4-17.9 5.6-14 6-15.4 5.7-21.7-.4-7.6-3.1-14.3-7.7-18.9-1.6-1.6-11.1-8.1-21.2-14.4-10-6.3-18.7-11.9-19.4-12.5-.6-.6-3.1-2-5.3-3.2-2.3-1.2-4.4-2.8-4.7-3.5-.3-.7.2-6.6 1.1-13.1 2.3-17.7 2.7-23.3 2.6-40.8 0-15.2-.3-21.8-1.5-31-.3-2.2-.7-6.3-1-9-.4-2.8-1-6.4-1.5-8.2-.5-2.1-.4-3.7.3-4.6.7-.8 11.8-8.1 24.7-16.3 23.4-14.8 27.8-18.1 30.6-23.7 3.1-5.9 4-15.7 2.1-21.7-3.2-10.2-20.2-49.8-23.1-53.7-3.9-5.2-11.6-9.9-18.3-11.1-4.6-.8-8.2-.3-32 5-14.7 3.3-28.1 6.1-29.8 6.4-2.8.4-3.4-.2-9.7-8.8-8.9-12.2-13.9-18-27.3-31.3-13.2-13.3-25.3-23.7-35.7-30.8-2.6-1.8-4.8-3.6-4.8-4 0-.4 2.5-12.1 5.6-26 5.5-24.9 6.4-28.9 6.8-31.6.5-2.6-1.5-11.5-3.4-15-2.7-5.3-8.9-11.1-14-13.3-9.6-4.2-38.8-16.2-44.6-18.4-10.6-3.9-23-2-30.6 4.7C436.4 8.4 431 16 426 24c-5.1 8-11.1 17.4-13.5 21-2.3 3.6-5.4 8.4-6.8 10.7-2.5 4-2.7 4.1-6.4 3.3-2.1-.5-5.8-1.1-8.3-1.4-9.9-1.1-14.7-1.7-19-2.1-6.6-.6-36.5-.6-44 0-8.9.8-29.2 3.5-30.1 4.1-.4.2-3.4-3.6-6.6-8.6-3.2-5-7.2-11.2-8.8-13.8-1.7-2.6-6.5-10.2-10.8-16.9-8.7-13.6-13.1-17.4-22-19.2-6.9-1.4-11.7-1.2-17.4 1zm144 119.9c69.9 8.4 132.1 48.1 169.2 108.1 9.8 15.8 19.6 38.3 25.1 57.1 1.9 6.6 3.6 13.2 3.9 14.6.3 1.5.7 3.8 1 5.2 4.5 21.8 5.2 57.2 1.6 77-.6 3-1.3 6.9-1.6 8.6-2.8 16.8-13.2 46.4-22.7 64.4-24.5 46.4-65.2 84.1-111.4 103-5.4 2.3-11.2 4.7-12.9 5.5-5.4 2.4-22.8 7.4-33.5 9.5-42.3 8.7-87.7 4.8-126.7-10.9-23.9-9.5-39-17.9-57.8-32-8.7-6.6-30.2-27-36-34.1-11.6-14.5-22.3-30.7-28.8-43.6-9.6-19.2-20.2-51.1-22.2-67.4-.4-3-.8-5.7-1-6-1.7-2.7-2.4-37.8-1.1-52 3-33.5 15.4-70.3 33.4-99.4 20.9-33.8 52.4-63.5 86.5-81.6 11-5.8 32.9-14.8 44.7-18.4 13.3-4 30.7-7.2 44-8.2 4.7-.4 8.6-.7 8.8-.9.7-.6 29.5.5 37.5 1.5z"/><path d="M334.8 175.5c-.2.1-3 .6-6.3 1-12.3 1.3-38.8 8-42 10.5-.5.4-2.1 1.1-3.5 1.5-7.9 2.4-28.6 14.3-40.5 23.4-8.6 6.5-25.2 23.3-31.7 32.1-19.1 25.7-29.2 50.2-34.5 83.5-.4 2.8-.7 13.3-.7 23.5.1 17.3 1.2 27.1 4.7 42.6 2.9 12.3 13.2 36.1 21.5 49.4 13 20.9 34.7 42.6 55.2 55.1 3.1 1.9 6.4 4 7.5 4.6 2 1.3 2.8 1.7 14.5 7.1 13.9 6.4 30 11 47 13.6 9 1.3 41.5 1.6 46.5.3 2-.4 5.9-1.1 12.5-2.2 5.8-.9 26.7-7.2 28.5-8.5.6-.4 2.1-1.1 3.5-1.5 3.7-1.1 19.6-9.2 25.9-13.2 20.2-12.9 43.4-35.6 53.6-52.5 15.6-25.7 23.5-47.2 27.2-73.8 1-7.2 1-37.1 0-43.5-1.6-10.8-2.9-17.2-4.3-22.1-.8-2.8-1.6-6-1.8-7-.7-3.4-7.4-20.2-10.9-27.2-25.6-50.7-71.2-84.5-127.7-94.8-8.1-1.5-43-3-44.2-1.9zm27.2 87.9c9.2 1.6 13.9 2.9 19.8 5.2 48.6 19.5 69.7 75.8 45.6 121.9-6.4 12.2-17.2 24.4-27.4 31.1-2.5 1.6-4.7 3.1-5 3.5-.3.3-3.4 1.9-7 3.6-34.7 16.4-74.8 9.1-101.1-18.4-27.4-28.7-32.2-72.4-11.4-105.9 6.3-10.2 18.1-22.1 28-28.4 16.5-10.5 40.9-15.7 58.5-12.6z"/></svg>