<svg width="86" height="85" viewBox="0 0 86 85" fill="none" xmlns="http://www.w3.org/2000/svg">
<path fill-rule="evenodd" clip-rule="evenodd" d="M70.1104 50.5629C68.9658 50.0939 67.7408 49.8526 66.5039 49.8525C65.348 49.7867 64.193 49.9969 63.1343 50.4657C62.2184 50.9076 61.3445 51.4319 60.5236 52.0321C59.7246 52.612 58.9934 53.2801 58.3439 54.0236C57.7125 54.7521 57.0993 55.42 56.4982 56.0211C55.9525 56.5729 55.3638 57.0805 54.7375 57.5389C54.1053 57.9919 53.3312 58.2025 52.5566 58.1323C51.782 58.0621 51.0584 57.7157 50.5179 57.1564C49.8496 56.5297 49.1858 55.8982 48.5265 55.2621C47.6765 54.4364 46.6322 53.4407 45.3997 52.2689C44.1099 51.0456 42.8288 49.813 41.5565 48.5714L37.4279 44.54C34.893 42.0616 32.4427 39.498 30.0815 36.8536C29.2334 35.9213 28.4408 34.9401 27.7075 33.915C27.1368 33.0954 26.8515 32.4943 26.8515 32.1118C26.8162 31.4265 27.0345 30.7522 27.4647 30.2175C27.9079 29.6468 28.4361 29.0639 29.0311 28.4568C29.6383 27.8618 30.3 27.2243 31.0225 26.5625C31.7511 25.8946 32.419 25.1843 33.02 24.4254C33.615 23.6664 34.125 22.7982 34.5379 21.8146C34.9447 20.8432 35.1511 19.7321 35.1511 18.4996C35.151 15.9943 34.1627 13.59 32.4008 11.8089C31.2664 10.6954 30.1903 9.52413 29.1768 8.29964C28.0185 6.92027 26.7668 5.62198 25.4308 4.41393C24.1338 3.22699 22.7177 2.17714 21.205 1.28107C19.8313 0.449459 18.2574 0.00666825 16.6515 0C14.1482 0.00166256 11.7464 0.989851 9.96684 2.75036C8.32148 4.39571 6.88255 5.865 5.65005 7.16429C4.46723 8.39446 3.41716 9.74572 2.5172 11.1957C1.64502 12.6345 1.00571 14.202 0.622915 15.8404C0.177242 17.8655 -0.0305915 19.9356 0.00363017 22.0089C0.00363017 25.3604 0.543987 28.8393 1.61863 32.4457C2.69327 36.0461 4.14434 39.6404 5.97791 43.2104C7.81148 46.7864 10.0458 50.2957 12.6686 53.7443C15.2915 57.1868 18.139 60.4593 21.205 63.5618C24.2711 66.6582 27.5315 69.5239 30.98 72.1468C34.4225 74.7696 37.95 77.0343 41.5565 78.9286C45.1568 80.8289 48.7815 82.3104 52.4182 83.385C55.8636 84.4323 59.4423 84.9762 63.0432 85C65.1014 84.9989 67.1533 84.775 69.1632 84.3321C70.8196 83.9583 72.4046 83.3186 73.8564 82.4379C75.2529 81.5879 76.5886 80.5436 77.8879 79.3111C79.1871 78.0725 80.6382 76.6518 82.2532 75.0368C84.0146 73.2553 85.0029 70.8513 85.0036 68.3461C84.9348 67.2812 84.7266 66.23 84.3843 65.2193C84.0291 64.1607 83.5019 63.1679 82.8239 62.2807C82.1154 61.3508 81.37 60.4495 80.5896 59.5789C79.7856 58.6783 78.9323 57.8229 78.0336 57.0168C77.1658 56.2389 76.2955 55.4638 75.4229 54.6914C74.6591 54.018 73.9161 53.3215 73.1947 52.6029C72.3151 51.7212 71.2659 51.0272 70.1104 50.5629ZM67.8822 78.4064C66.2982 78.7872 64.6719 78.9626 63.0432 78.9286C59.9217 78.8695 56.8237 78.3749 53.8389 77.4593C50.4992 76.4499 47.2724 75.099 44.2097 73.4279C37.4005 69.6993 31.1689 65.0016 25.71 59.4818C22.9354 56.6757 20.3225 53.7141 17.884 50.6114C15.5166 47.6117 13.4236 44.4052 11.6304 41.0307C9.95908 37.9105 8.59079 34.6372 7.54434 31.2557C6.59354 28.2167 6.0984 25.0535 6.07506 21.8693C6.07352 20.2535 6.26512 18.6432 6.64577 17.0729C6.99184 15.7493 7.51398 14.5593 8.2122 13.5211C8.90434 12.4768 9.76041 11.4629 10.7683 10.4854C11.7822 9.50179 12.9358 8.36036 14.229 7.06714C14.5438 6.74343 14.9219 6.48797 15.3397 6.31667C15.7575 6.14537 16.2061 6.06189 16.6575 6.07143C17.034 6.04107 17.6168 6.29 18.4061 6.83036C19.1954 7.37071 20.0515 8.01429 20.9683 8.77321C22.9482 10.4247 24.775 12.2515 26.4265 14.2314C27.1854 15.1421 27.8168 15.9861 28.3208 16.745C28.8247 17.5039 29.0797 18.0868 29.0797 18.4996C29.1342 19.1874 28.9137 19.8686 28.4665 20.3939C28.0233 20.9039 27.495 21.4868 26.9 22.1546C26.2929 22.8164 25.6311 23.4479 24.9086 24.0489C24.18 24.65 23.5122 25.3604 22.9111 26.18C22.3078 27.0072 21.7987 27.8991 21.3933 28.8393C20.9655 29.8783 20.7567 30.9945 20.78 32.1179C20.8104 33.4111 21.0654 34.6254 21.539 35.7607C22.0125 36.9021 22.6925 37.9161 23.579 38.7964L46.2011 61.4246C47.0715 62.3158 48.1126 63.0224 49.2621 63.5022C50.4117 63.9821 51.6461 64.2253 52.8918 64.2175C54.0311 64.2779 55.1687 64.07 56.2129 63.6104C58.0367 62.7654 59.6673 61.5544 61.0032 60.0525C61.6711 59.3239 62.2782 58.6561 62.855 58.055C63.4197 57.46 64.0086 56.95 64.6097 56.5371C65.1632 56.1431 65.8245 55.929 66.5039 55.9239C66.9472 55.9239 67.5482 56.1789 68.3072 56.6829C69.0661 57.1868 69.9039 57.8364 70.8207 58.6257C71.7375 59.415 72.6847 60.2893 73.6682 61.2364C74.6457 62.1836 75.52 63.1307 76.2789 64.0839C77.0318 65.0311 77.6693 65.8871 78.1732 66.6461C78.6771 67.405 78.9322 67.9818 78.9322 68.4007C78.9366 68.8425 78.8505 69.2804 78.6793 69.6877C78.508 70.0949 78.2552 70.4628 77.9364 70.7686C76.5764 72.0982 75.4229 73.2579 74.4757 74.2293C73.5552 75.1861 72.5379 76.0448 71.44 76.7914C70.3528 77.5251 69.1501 78.071 67.8822 78.4064ZM85.0036 4.27429L56.8322 32.4943H76.795V38.5657H46.4379V8.20857H52.5093V28.1714L80.7354 0L85.0036 4.26821V4.27429Z" fill="#696984"/>
</svg>
