<svg width="65" height="65" viewBox="0 0 65 65" fill="none" xmlns="http://www.w3.org/2000/svg">
<path d="M63.7951 35.1951L51.239 51.6829C50.4781 52.4016 49.5585 52.761 48.4805 52.761C47.4024 52.761 46.4829 52.3911 45.722 51.6512C44.961 50.9114 44.5805 50.0024 44.5805 48.9244C44.5805 47.8463 44.961 46.9268 45.722 46.1659L56.1854 32.4683L45.722 18.7707C44.961 18.0098 44.5805 17.1008 44.5805 16.0439C44.5805 14.987 44.961 14.078 45.722 13.3171C46.4829 12.5561 47.4024 12.1756 48.4805 12.1756C49.5585 12.1756 50.4781 12.5561 51.239 13.3171L63.7951 29.7415C64.5561 30.5024 64.9366 31.4114 64.9366 32.4683C64.9366 33.5252 64.5561 34.4341 63.7951 35.1951ZM32.4683 60.9415C32.426 61.0683 32.3626 61.3114 32.2781 61.6707C32.1935 62.0301 32.1301 62.2732 32.0878 62.4L31.8659 63.0659L31.5488 63.7317L31.0732 64.239L30.4073 64.6829L29.5512 64.9049L28.4098 65C27.3951 65 26.4228 64.4715 25.4927 63.4146C24.5626 62.3577 24.2244 61.3431 24.4781 60.3707L32.4683 4.05854C33.187 1.35285 35.2163 0 38.5561 0C39.4862 0 40.1098 0.496748 40.4268 1.49024C40.7439 2.48374 40.7545 3.53008 40.4585 4.62927L32.4683 60.9415ZM19.2146 51.6512C18.4537 52.3911 17.5341 52.761 16.4561 52.761C15.3781 52.761 14.4585 52.4016 13.6976 51.6829L1.14146 35.1951C0.380488 34.4341 0 33.5252 0 32.4683C0 31.4114 0.380488 30.5024 1.14146 29.7415L13.6976 13.3171C14.4585 12.5561 15.3781 12.1756 16.4561 12.1756C17.5341 12.1756 18.4537 12.5561 19.2146 13.3171C19.9756 14.078 20.3561 14.987 20.3561 16.0439C20.3561 17.1008 19.9756 18.0098 19.2146 18.7707L8.75122 32.4683L19.2146 46.1659C19.9756 46.9268 20.3561 47.8463 20.3561 48.9244C20.3561 50.0024 19.9756 50.9114 19.2146 51.6512Z" fill="white"/>
</svg>
