<svg width="40" height="10" viewBox="0 0 40 10" fill="none" xmlns="http://www.w3.org/2000/svg">
<path d="M9.375 4.6875C9.375 5.9307 8.88114 7.12299 8.00206 8.00206C7.12299 8.88114 5.9307 9.375 4.6875 9.375C3.4443 9.375 2.25201 8.88114 1.37294 8.00206C0.49386 7.12299 0 5.9307 0 4.6875C0 3.4443 0.49386 2.25201 1.37294 1.37294C2.25201 0.49386 3.4443 0 4.6875 0C5.9307 0 7.12299 0.49386 8.00206 1.37294C8.88114 2.25201 9.375 3.4443 9.375 4.6875Z" fill="black"/>
<path d="M24.375 4.6875C24.375 5.9307 23.8811 7.12299 23.0021 8.00206C22.123 8.88114 20.9307 9.375 19.6875 9.375C18.4443 9.375 17.252 8.88114 16.3729 8.00206C15.4939 7.12299 15 5.9307 15 4.6875C15 3.4443 15.4939 2.25201 16.3729 1.37294C17.252 0.49386 18.4443 0 19.6875 0C20.9307 0 22.123 0.49386 23.0021 1.37294C23.8811 2.25201 24.375 3.4443 24.375 4.6875Z" fill="black"/>
<path d="M34.6875 9.375C35.9307 9.375 37.123 8.88114 38.0021 8.00206C38.8811 7.12299 39.375 5.9307 39.375 4.6875C39.375 3.4443 38.8811 2.25201 38.0021 1.37294C37.123 0.49386 35.9307 0 34.6875 0C33.4443 0 32.252 0.49386 31.3729 1.37294C30.4939 2.25201 30 3.4443 30 4.6875C30 5.9307 30.4939 7.12299 31.3729 8.00206C32.252 8.88114 33.4443 9.375 34.6875 9.375Z" fill="black"/>
</svg>
