<svg width="36" height="22" viewBox="0 0 36 22" fill="none" xmlns="http://www.w3.org/2000/svg">
<path d="M23.5788 10.6492C23.5788 13.4297 21.2261 15.6838 18.3238 15.6838C15.4216 15.6838 13.0689 13.4297 13.0689 10.6492C13.0689 7.86873 15.4216 5.61473 18.3238 5.61473C21.2261 5.6147 23.5788 7.86875 23.5788 10.6492ZM18.3333 0.166626C15.3284 0.179955 12.2138 0.911484 9.26531 2.31204C7.07612 3.39476 4.94264 4.92234 3.09067 6.80782C2.18108 7.77029 1.02091 9.16393 0.833344 10.6509C0.85551 11.9389 2.23714 13.5287 3.09067 14.494C4.82734 16.3054 6.90526 17.7903 9.26531 18.9909C12.0149 20.3253 15.0583 21.0935 18.3333 21.1363C21.3411 21.1227 24.4551 20.3828 27.4003 18.9909C29.5895 17.9081 31.724 16.3794 33.576 14.494C34.4856 13.5315 35.6457 12.1378 35.8333 10.6509C35.8112 9.36285 34.4296 7.77297 33.576 6.80776C31.8393 4.99633 29.7603 3.51254 27.4003 2.31198C24.6521 0.978597 21.6012 0.215597 18.3333 0.166626ZM18.3311 2.76969C22.8846 2.76969 26.5758 6.29869 26.5758 10.652C26.5758 15.0053 22.8846 18.5343 18.3311 18.5343C13.7777 18.5343 10.0864 15.0053 10.0864 10.652C10.0864 6.29869 13.7777 2.76969 18.3311 2.76969Z" fill="white"/>
</svg>
