<svg width="282" height="282" viewBox="0 0 282 282" fill="none" xmlns="http://www.w3.org/2000/svg">
<path d="M276.34 174.151L257.304 162.048C258.574 155.101 259.272 147.948 259.272 140.635C259.272 133.323 258.579 126.179 257.308 119.232L276.34 107.129C280.615 104.406 282.457 98.1526 280.408 93.2354L272.988 75.3245C270.949 70.3979 265.225 67.2714 260.28 68.3729L238.272 73.2667C230.087 61.4323 219.83 51.1752 207.996 42.9901L212.894 20.9776C213.991 16.0323 210.869 10.3089 205.947 8.27449L188.032 0.849495C183.105 -1.20363 176.847 0.63387 174.129 4.91824L162.025 23.9495C154.965 22.6478 147.802 21.9889 140.622 21.9807C133.305 21.9807 126.157 22.6792 119.215 23.9448L107.111 4.91356C104.388 0.629182 98.1395 -1.20832 93.213 0.835432L75.3067 8.26043C70.3802 10.2948 67.2489 16.0229 68.3552 20.9729L73.2489 42.9807C61.4151 51.163 51.1593 61.4188 42.977 73.2526L20.9645 68.3589C16.0192 67.2526 10.2958 70.3839 8.25673 75.301L0.836416 93.212C-1.20733 98.1386 0.630166 104.396 4.90517 107.115L23.9411 119.218C22.6435 126.281 21.9862 133.446 21.977 140.626C21.977 147.943 22.6755 155.087 23.9411 162.029L4.90517 174.132C0.625478 176.856 -1.20733 183.109 0.836416 188.04L8.25673 205.951C10.3005 210.868 16.0192 214.004 20.9645 212.893L42.977 207.995C51.1617 219.828 61.417 230.085 73.2489 238.271L68.3505 260.284C67.2442 265.229 70.3802 270.953 75.2973 272.987L93.2083 280.412C98.1395 282.446 104.388 280.618 107.111 276.339L119.215 257.307C126.161 258.578 133.31 259.271 140.622 259.271C147.935 259.271 155.074 258.578 162.025 257.307L174.129 276.339C176.847 280.618 183.105 282.446 188.027 280.412L205.933 272.996C210.869 270.953 213.991 265.229 212.885 260.284L207.991 238.271C219.827 230.088 230.084 219.83 238.268 207.995L260.275 212.893C265.221 213.999 270.944 210.864 272.983 205.951L280.404 188.04C282.457 183.118 280.615 176.865 276.34 174.151ZM110.355 227.739L100.671 223.731C81.8189 214.637 66.6078 199.419 57.5224 180.564L53.5286 170.926C50.112 161.192 48.3578 150.952 48.3395 140.635C48.3395 129.981 50.238 119.795 53.5567 110.27L57.5036 100.74C66.5893 81.8728 81.8057 66.6449 100.666 57.5448L110.36 53.5276C120.084 50.1164 130.313 48.3654 140.618 48.3479C151.211 48.3479 161.35 50.2229 170.829 53.5136L180.616 57.5682C199.417 66.6476 214.595 81.8199 223.68 100.618L227.754 110.462C231.035 119.931 232.905 130.051 232.905 140.635C232.905 151.22 231.04 161.345 227.754 170.814L223.68 180.657C214.596 199.457 199.418 214.629 180.616 223.707L170.829 227.762C161.118 231.161 150.906 232.907 140.618 232.928C130.311 232.899 120.082 231.145 110.355 227.739Z" fill="#BEBDEE"/>
<path d="M210.935 140.635C210.935 101.804 179.458 70.323 140.623 70.323C101.796 70.323 70.3101 101.804 70.3101 140.635C70.3101 179.467 101.796 210.948 140.623 210.948C179.458 210.948 210.935 179.467 210.935 140.635ZM105.466 140.635C105.466 131.311 109.17 122.369 115.763 115.776C122.356 109.183 131.299 105.479 140.623 105.479C149.947 105.479 158.889 109.183 165.482 115.776C172.075 122.369 175.779 131.311 175.779 140.635C175.779 149.96 172.075 158.902 165.482 165.495C158.889 172.088 149.947 175.792 140.623 175.792C131.299 175.792 122.356 172.088 115.763 165.495C109.17 158.902 105.466 149.96 105.466 140.635Z" fill="#BEBDEE"/>
</svg>
