<svg width="45" height="45" viewBox="0 0 45 45" fill="none" xmlns="http://www.w3.org/2000/svg">
<path d="M2.93534 3.12421C-0.590754 6.78607 0.130917 10.676 0.130917 22.4933C0.130917 32.3069 -1.58165 42.1447 7.38128 44.4607C10.1801 45.1804 34.9786 45.1804 37.7737 44.457C41.5055 43.4943 44.5417 40.468 44.9568 35.1911C45.0147 34.4546 45.0147 10.5451 44.9549 9.79368C44.5137 4.17286 41.053 0.933457 36.493 0.277352C35.4479 0.125943 35.2385 0.0810813 29.8765 0.0717351C10.8569 0.0810813 6.68765 -0.765687 2.93534 3.12421Z" fill="url(#paint0_linear)"/>
<path d="M22.5626 5.93933C15.7741 5.93933 9.32763 5.33556 6.86535 11.6536C5.84828 14.2631 5.99598 17.652 5.99598 22.5046C5.99598 26.7627 5.8595 30.7648 6.86535 33.3537C9.32202 39.6755 15.8208 39.0698 22.5589 39.0698C29.0595 39.0698 35.7621 39.7465 38.2543 33.3537C39.2732 30.7181 39.1236 27.3796 39.1236 22.5046C39.1236 16.0333 39.4807 11.8555 36.3417 8.71889C33.1633 5.54118 28.8651 5.93933 22.5551 5.93933H22.5626ZM21.0781 8.92451C35.2386 8.90208 37.0409 7.32818 36.0463 29.1927C35.6929 36.9258 29.8036 36.0772 22.5645 36.0772C9.36502 36.0772 8.98549 35.6996 8.98549 22.4971C8.98549 9.14135 10.0325 8.93199 21.0781 8.92077V8.92451ZM31.4059 11.6742C30.3084 11.6742 29.4185 12.5639 29.4185 13.6612C29.4185 14.7584 30.3084 15.6482 31.4059 15.6482C32.5033 15.6482 33.3933 14.7584 33.3933 13.6612C33.3933 12.5639 32.5033 11.6742 31.4059 11.6742ZM22.5626 13.9976C17.8643 13.9976 14.0559 17.8072 14.0559 22.5046C14.0559 27.202 17.8643 31.0097 22.5626 31.0097C27.261 31.0097 31.0675 27.202 31.0675 22.5046C31.0675 17.8072 27.261 13.9976 22.5626 13.9976ZM22.5626 16.9828C29.8635 16.9828 29.8728 28.0263 22.5626 28.0263C15.2636 28.0263 15.2524 16.9828 22.5626 16.9828Z" fill="white"/>
<defs>
<linearGradient id="paint0_linear" x1="3.02138" y1="42.0683" x2="44.7169" y2="5.97414" gradientUnits="userSpaceOnUse">
<stop stop-color="#FFDD55"/>
<stop offset="0.5" stop-color="#FF543E"/>
<stop offset="1" stop-color="#C837AB"/>
</linearGradient>
</defs>
</svg>
