<svg width="70" height="70" viewBox="0 0 70 70" fill="none" xmlns="http://www.w3.org/2000/svg">
<path d="M66.1111 31.1111C65.0797 31.1111 64.0906 31.5208 63.3612 32.2501C62.6319 32.9795 62.2222 33.9686 62.2222 35V58.3333C62.2222 59.3647 61.8125 60.3539 61.0832 61.0832C60.3539 61.8125 59.3647 62.2222 58.3333 62.2222H11.6667C10.6353 62.2222 9.64612 61.8125 8.91681 61.0832C8.1875 60.3539 7.77778 59.3647 7.77778 58.3333V11.6667C7.77778 10.6353 8.1875 9.64612 8.91681 8.91681C9.64612 8.1875 10.6353 7.77778 11.6667 7.77778H35C36.0314 7.77778 37.0205 7.36806 37.7499 6.63875C38.4792 5.90944 38.8889 4.92029 38.8889 3.88889C38.8889 2.85749 38.4792 1.86834 37.7499 1.13903C37.0205 0.409721 36.0314 0 35 0H11.6667C8.57247 0 5.60501 1.22916 3.41709 3.41709C1.22916 5.60501 0 8.57247 0 11.6667V58.3333C0 61.4275 1.22916 64.395 3.41709 66.5829C5.60501 68.7708 8.57247 70 11.6667 70H58.3333C61.4275 70 64.395 68.7708 66.5829 66.5829C68.7708 64.395 70 61.4275 70 58.3333V35C70 33.9686 69.5903 32.9795 68.861 32.2501C68.1317 31.5208 67.1425 31.1111 66.1111 31.1111Z" fill="#DEDEDE"/>
<path d="M50.5556 7.77778H56.7L32.2389 32.2C31.8744 32.5615 31.5851 32.9916 31.3876 33.4655C31.1902 33.9394 31.0886 34.4477 31.0886 34.9611C31.0886 35.4745 31.1902 35.9828 31.3876 36.4567C31.5851 36.9306 31.8744 37.3607 32.2389 37.7222C32.6004 38.0867 33.0305 38.376 33.5044 38.5735C33.9783 38.7709 34.4866 38.8726 35 38.8726C35.5134 38.8726 36.0217 38.7709 36.4956 38.5735C36.9695 38.376 37.3996 38.0867 37.7611 37.7222L62.2222 13.3V19.4445C62.2222 20.4758 62.6319 21.465 63.3612 22.1943C64.0906 22.9236 65.0797 23.3333 66.1111 23.3333C67.1425 23.3333 68.1317 22.9236 68.861 22.1943C69.5903 21.465 70 20.4758 70 19.4445V3.88889C70 2.85749 69.5903 1.86834 68.861 1.13903C68.1317 0.409721 67.1425 0 66.1111 0H50.5556C49.5242 0 48.535 0.409721 47.8057 1.13903C47.0764 1.86834 46.6667 2.85749 46.6667 3.88889C46.6667 4.92029 47.0764 5.90944 47.8057 6.63875C48.535 7.36806 49.5242 7.77778 50.5556 7.77778Z" fill="#DEDEDE"/>
</svg>
