<svg width="65" height="90" viewBox="0 0 65 90" fill="none" xmlns="http://www.w3.org/2000/svg">
<path d="M63.6786 10.8266L63.6682 11.3368H63.7004V83.9767H63.6712V84.4767C63.6712 84.5035 63.673 84.5261 63.6747 84.5423C63.6752 84.5477 63.6758 84.5529 63.6764 84.5575C63.6697 85.8661 63.1469 87.1196 62.221 88.0453C61.2896 88.9765 60.0265 89.4997 58.7095 89.5C58.6954 89.5 58.6752 89.4983 58.6264 89.4915C58.5866 89.486 58.5105 89.4744 58.4324 89.4704L58.4197 89.4697H58.4069H6.21005V89.4282L5.69084 89.4482C5.62556 89.4507 5.5636 89.4597 5.52974 89.4646L5.5201 89.466C5.50106 89.4687 5.49002 89.4701 5.48109 89.471C5.47426 89.4717 5.4713 89.4718 5.47097 89.4718H5.4708C4.81832 89.4722 4.17215 89.344 3.56921 89.0947C2.96626 88.8453 2.41835 88.4796 1.95676 88.0184C1.49516 87.5573 1.12893 87.0097 0.87898 86.407C0.632492 85.8126 0.503842 85.1762 0.500084 84.5329L0.561767 83.9778H0.5V11.3357H0.52536L0.514496 10.8251C0.513785 10.7917 0.51102 10.7626 0.508354 10.7403C0.506084 10.7213 0.503327 10.703 0.501809 10.6929L0.501382 10.6901C0.500796 10.6862 0.500355 10.6831 0.500027 10.6808C0.504568 9.36728 1.02826 8.10865 1.95719 7.17954C2.88325 6.2533 4.13689 5.72974 5.44598 5.72177L5.46597 5.72377H5.49091H20.7939H21.2939V5.22377V1.69674V1.67179L21.2914 1.64696L21.291 1.64266C21.3029 1.01813 21.8065 0.514834 22.4303 0.502325C22.4319 0.502507 22.4335 0.502687 22.4352 0.502861C22.4509 0.504516 22.4729 0.506261 22.499 0.506261H22.999V0.5H41.2505V0.507212L41.7494 0.508347C42.392 0.509809 42.9128 1.03017 42.9128 1.67273V5.22482V5.72482H43.4128H58.6041V5.72497L58.6166 5.72466C58.6479 5.72388 58.6749 5.72123 58.6952 5.71875C58.7141 5.71645 58.7324 5.71361 58.7395 5.71254C58.7399 5.71247 58.7404 5.7124 58.7408 5.71233C60.0534 5.71756 61.3109 6.24148 62.2389 7.17024C63.1681 8.10017 63.6913 9.36008 63.6942 10.6744C63.6938 10.6771 63.6932 10.6811 63.6924 10.6864C63.6917 10.6914 63.6904 10.6994 63.689 10.709C63.6877 10.7179 63.6863 10.7282 63.6851 10.7387C63.6823 10.7617 63.6793 10.7919 63.6786 10.8266ZM9.87137 79.6297V80.1297H10.3714H53.3259H53.8259H53.827V79.6297H54.3259V15.5837V15.0837H53.8259H48.6168H48.1168V15.5837V18.8498C48.1168 18.8757 48.1185 18.8974 48.12 18.9124C48.1203 18.9146 48.1205 18.9167 48.1207 18.9188C48.1142 19.2794 47.9682 19.6239 47.7127 19.8793C47.4516 20.1404 47.0977 20.2872 46.7285 20.2876H17.9828V20.2423L17.4517 20.2802C16.6939 20.2714 16.0834 19.6565 16.0754 18.9025C16.0763 18.8963 16.0779 18.8849 16.0791 18.8756C16.081 18.8608 16.0834 18.8403 16.0848 18.8164L16.0858 18.8013V18.7862V15.5837V15.0837H15.5858H10.3714H9.87137V15.5837V79.6297Z" fill="white" stroke="black"/>
<path d="M48.6188 35.7337C48.6188 35.0471 48.0585 34.4867 47.3687 34.4867H27.2333C26.9019 34.487 26.5842 34.6186 26.3496 34.8527C26.1151 35.0869 25.983 35.4044 25.9821 35.7358V38.4458C25.9821 39.1303 26.5425 39.6907 27.2333 39.6907H47.3677C48.0595 39.6907 48.6199 39.1303 48.6199 38.4458V35.7358H48.6188V35.7337Z" fill="black"/>
<path d="M48.6188 46.1426C48.6188 45.456 48.0585 44.8956 47.3687 44.8956H27.2333C26.9019 44.8959 26.5842 45.0275 26.3496 45.2617C26.1151 45.4958 25.983 45.8133 25.9821 46.1447V48.8547C25.9821 49.5392 26.5425 50.0996 27.2333 50.0996H47.3677C48.0595 50.0996 48.6199 49.5392 48.6199 48.8547V46.1447H48.6188V46.1426Z" fill="black"/>
<path d="M48.6188 56.5516C48.6188 55.865 48.0585 55.3046 47.3687 55.3046H27.2333C26.9019 55.3049 26.5842 55.4365 26.3496 55.6706C26.1151 55.9047 25.983 56.2223 25.9821 56.5537V59.2636C25.9821 59.9482 26.5425 60.5085 27.2333 60.5085H47.3677C48.0595 60.5085 48.6199 59.9482 48.6199 59.2636V56.5537H48.6188V56.5516Z" fill="black"/>
<path d="M20.2453 45.1674C20.3586 45.0595 20.5094 44.9999 20.6658 45.0011C20.8223 45.0023 20.9721 45.0642 21.0838 45.1737C21.1955 45.2833 21.2602 45.432 21.2643 45.5884C21.2685 45.7448 21.2117 45.8967 21.106 46.012L17.8966 50.0258C17.8414 50.0852 17.7748 50.1329 17.7007 50.166C17.6267 50.1991 17.5467 50.217 17.4656 50.2185C17.3845 50.22 17.304 50.2051 17.2287 50.1747C17.1535 50.1444 17.0852 50.0992 17.0278 50.0418L14.8995 47.9135C14.8402 47.8583 14.7927 47.7917 14.7597 47.7177C14.7267 47.6437 14.709 47.5638 14.7076 47.4828C14.7062 47.4018 14.7211 47.3213 14.7514 47.2462C14.7817 47.1711 14.8269 47.1028 14.8842 47.0456C14.9415 46.9883 15.0097 46.9431 15.0848 46.9128C15.1599 46.8824 15.2404 46.8675 15.3214 46.869C15.4024 46.8704 15.4823 46.8881 15.5563 46.9211C15.6303 46.9541 15.6969 47.0016 15.7521 47.0609L17.4365 48.7444L20.23 45.1851C20.235 45.1789 20.2404 45.173 20.2461 45.1674H20.2453Z" fill="#00D050"/>
<path d="M20.2453 34.7324C20.3586 34.6245 20.5094 34.5649 20.6658 34.566C20.8223 34.5672 20.9721 34.6291 21.0838 34.7387C21.1955 34.8483 21.2602 34.997 21.2643 35.1534C21.2685 35.3097 21.2117 35.4616 21.106 35.577L17.8966 39.5907C17.8414 39.6502 17.7748 39.6979 17.7007 39.731C17.6267 39.7641 17.5467 39.7819 17.4656 39.7834C17.3845 39.7849 17.304 39.7701 17.2287 39.7397C17.1535 39.7094 17.0852 39.6642 17.0278 39.6068L14.8995 37.4785C14.8402 37.4232 14.7927 37.3566 14.7597 37.2826C14.7267 37.2086 14.709 37.1288 14.7076 37.0477C14.7062 36.9667 14.7211 36.8863 14.7514 36.8112C14.7817 36.7361 14.8269 36.6678 14.8842 36.6105C14.9415 36.5532 15.0097 36.5081 15.0848 36.4777C15.1599 36.4474 15.2404 36.4325 15.3214 36.4339C15.4024 36.4354 15.4823 36.4531 15.5563 36.4861C15.6303 36.519 15.6969 36.5666 15.7521 36.6258L17.4365 38.3094L20.23 34.7501C20.235 34.7439 20.2396 34.738 20.2453 34.7324Z" fill="#00D050"/>
<path d="M15.8669 59.4941L19.925 55.4361M19.925 59.4941L15.8669 55.4361" stroke="#FF0000" stroke-width="0.5" stroke-linecap="round" stroke-linejoin="round"/>
</svg>
