<svg width="132" height="38" viewBox="0 0 132 38" fill="none" xmlns="http://www.w3.org/2000/svg">
<path d="M22.9297 19.2656L35.1641 0.515625C36.4922 0.59375 37.75 0.695313 38.9375 0.820312C40.125 0.929688 41.1641 1.04688 42.0547 1.17188C43.1016 1.3125 44.0703 1.45312 44.9609 1.59375V6.98438L40.6016 6V30.1875L44.9609 29.2031V35.0156C43.3047 35.3438 41.6719 35.5859 40.0625 35.7422C38.4531 35.8984 36.8203 36.0156 35.1641 36.0938V10.3594L22.9297 29.3438L10.5078 10.3125V36.0938C9.17969 36.0156 7.92188 35.9219 6.73438 35.8125C5.54688 35.7031 4.50781 35.5859 3.61719 35.4609C2.57031 35.3203 1.60156 35.1719 0.710938 35.0156V29.2031L5.07031 30.1875V5.95312L0.710938 6.9375V1.54688C1.60156 1.40625 2.57031 1.26562 3.61719 1.125C4.50781 1 5.54688 0.882813 6.73438 0.773438C7.92188 0.648438 9.17969 0.546875 10.5078 0.46875L22.9297 19.2656ZM69.1016 9.28125C69.8984 9.28125 70.8594 9.32031 71.9844 9.39844C73.1094 9.47656 74.2734 9.61719 75.4766 9.82031C76.6953 10.0078 77.8984 10.2812 79.0859 10.6406C80.2734 10.9844 81.3359 11.4297 82.2734 11.9766C83.2266 12.5234 83.9922 13.1875 84.5703 13.9688C85.1641 14.7344 85.4609 15.6406 85.4609 16.6875V24.6094H58.6016V30.6094C60.4922 30.875 62.3125 31.0625 64.0625 31.1719C65.8125 31.2656 67.4922 31.3125 69.1016 31.3125C71.5547 31.3125 73.7734 31.2188 75.7578 31.0312C77.7578 30.8438 79.4844 30.6328 80.9375 30.3984C82.6094 30.1328 84.1172 29.8281 85.4609 29.4844V34.6875C82.4922 35.1562 79.625 35.4922 76.8594 35.6953C74.1094 35.8984 71.5234 36 69.1016 36C66.6641 36 64.4531 35.9375 62.4688 35.8125C60.4844 35.6719 58.7812 35.5156 57.3594 35.3438C55.7031 35.1562 54.2109 34.9375 52.8828 34.6875V16.6875C52.8828 15.6406 53.1406 14.7344 53.6562 13.9688C54.1719 13.1875 54.8594 12.5234 55.7188 11.9766C56.5781 11.4297 57.5625 10.9844 58.6719 10.6406C59.7969 10.2812 60.9609 10.0078 62.1641 9.82031C63.3672 9.61719 64.5625 9.47656 65.75 9.39844C66.9531 9.32031 68.0703 9.28125 69.1016 9.28125ZM58.6016 20.8594H79.6484V18.1406C79.6484 17.5 79.4922 16.9531 79.1797 16.5C78.8672 16.0312 78.4453 15.6406 77.9141 15.3281C77.3984 15.0156 76.7891 14.7656 76.0859 14.5781C75.3984 14.375 74.6797 14.2266 73.9297 14.1328C73.1797 14.0234 72.4219 13.9531 71.6562 13.9219C70.9062 13.8906 70.1953 13.875 69.5234 13.875C68.8203 13.875 68.0625 13.8906 67.25 13.9219C66.4531 13.9531 65.6484 14.0234 64.8359 14.1328C64.0234 14.2422 63.2422 14.3984 62.4922 14.6016C61.7422 14.7891 61.0781 15.0469 60.5 15.375C59.9219 15.6875 59.4609 16.0781 59.1172 16.5469C58.7734 17 58.6016 17.5469 58.6016 18.1875V20.8594ZM99.0547 9.1875C98.9141 10.2969 98.7891 11.4062 98.6797 12.5156C98.5859 13.625 98.5391 14.7812 98.5391 15.9844C98.5391 17.4219 98.6016 18.8438 98.7266 20.25C98.8516 21.6562 99.1172 23.0078 99.5234 24.3047C99.9453 25.5859 100.547 26.8047 101.328 27.9609C102.125 29.1172 103.195 30.1719 104.539 31.125C105.305 30.6406 105.914 30.0547 106.367 29.3672C106.836 28.6641 107.203 27.9141 107.469 27.1172C107.734 26.3203 107.922 25.5078 108.031 24.6797C108.156 23.8516 108.258 23.0469 108.336 22.2656V16.5469H113.023V22.2656C113.086 23.0469 113.18 23.8516 113.305 24.6797C113.43 25.5078 113.625 26.3203 113.891 27.1172C114.156 27.9141 114.516 28.6641 114.969 29.3672C115.438 30.0547 116.039 30.6406 116.773 31.125C118.117 30.1719 119.188 29.1172 119.984 27.9609C120.781 26.8047 121.391 25.5859 121.812 24.3047C122.234 23.0078 122.508 21.6562 122.633 20.25C122.758 18.8438 122.82 17.4219 122.82 15.9844C122.82 14.7812 122.766 13.625 122.656 12.5156C122.562 11.4062 122.43 10.2969 122.258 9.1875C123.68 9.26562 124.938 9.36719 126.031 9.49219C127.125 9.61719 128.055 9.74219 128.82 9.86719C129.711 10.0078 130.492 10.1562 131.164 10.3125V15.75C130.758 15.5312 130.367 15.3672 129.992 15.2578C129.633 15.1328 129.312 15.0391 129.031 14.9766C128.703 14.9141 128.398 14.875 128.117 14.8594C128.117 17.125 128.016 19.1562 127.812 20.9531C127.609 22.7344 127.305 24.3359 126.898 25.7578C126.492 27.1797 125.977 28.4453 125.352 29.5547C124.742 30.6641 124.016 31.6719 123.172 32.5781C122.328 33.4688 121.375 34.2891 120.312 35.0391C119.25 35.7891 118.07 36.5156 116.773 37.2188C115.289 36.375 114.062 35.4297 113.094 34.3828C112.125 33.3359 111.32 32.1406 110.68 30.7969C110.07 32.1406 109.273 33.3359 108.289 34.3828C107.32 35.4297 106.07 36.375 104.539 37.2188C103.258 36.5156 102.086 35.7891 101.023 35.0391C99.9766 34.2891 99.0312 33.4688 98.1875 32.5781C97.3594 31.6719 96.6406 30.6641 96.0312 29.5547C95.4219 28.4453 94.9141 27.1797 94.5078 25.7578C94.1016 24.3359 93.7969 22.7344 93.5938 20.9531C93.3906 19.1562 93.2891 17.125 93.2891 14.8594C92.9922 14.875 92.6797 14.9141 92.3516 14.9766C92.0547 15.0391 91.7188 15.1328 91.3438 15.2578C90.9688 15.3672 90.5703 15.5312 90.1484 15.75V10.3125C90.8203 10.1562 91.6094 10.0078 92.5156 9.86719C93.2812 9.74219 94.2109 9.61719 95.3047 9.49219C96.4141 9.36719 97.6641 9.26562 99.0547 9.1875Z" fill="#BEBDEE"/>
</svg>
