<svg width="20" height="40" viewBox="0 0 20 40" fill="none" xmlns="http://www.w3.org/2000/svg">
<path d="M4.28572 20C4.28572 21.1302 4.62085 22.235 5.24875 23.1747C5.87664 24.1144 6.76909 24.8469 7.81324 25.2794C8.85739 25.7119 10.0063 25.825 11.1148 25.6045C12.2233 25.384 13.2414 24.8398 14.0406 24.0407C14.8398 23.2415 15.384 22.2233 15.6045 21.1148C15.825 20.0064 15.7118 18.8574 15.2793 17.8133C14.8468 16.7691 14.1144 15.8767 13.1747 15.2488C12.235 14.6209 11.1302 14.2858 10 14.2858C8.48448 14.2858 7.03103 14.8878 5.95939 15.9594C4.88775 17.0311 4.28572 18.4845 4.28572 20ZM12.8571 20C12.8571 20.5651 12.6896 21.1175 12.3756 21.5874C12.0617 22.0572 11.6155 22.4235 11.0934 22.6397C10.5713 22.856 9.99683 22.9125 9.4426 22.8023C8.88837 22.692 8.37927 22.4199 7.9797 22.0204C7.58012 21.6208 7.308 21.1117 7.19776 20.5574C7.08751 20.0032 7.14409 19.4287 7.36034 18.9067C7.57659 18.3846 7.9428 17.9384 8.41266 17.6244C8.88251 17.3105 9.43491 17.1429 10 17.1429C10.7578 17.1429 11.4845 17.4439 12.0203 17.9797C12.5561 18.5156 12.8571 19.2423 12.8571 20Z" fill="#474747"/>
<path d="M10 35.9571L2 27.9714L0 29.9999L10 39.9999L20 29.9999L17.9857 27.9857L10 35.9571Z" fill="#474747"/>
<path d="M10 4.04285L17.9714 12L20 9.99999L10 0L0 9.99999L2.01428 12.0143L10 4.04285Z" fill="#474747"/>
</svg>
