<svg width="55" height="49" viewBox="0 0 55 49" fill="none" xmlns="http://www.w3.org/2000/svg">
<path d="M48.75 0H5.41667C2.42937 0 0 2.42937 0 5.41667V16.25C0 19.2373 2.42937 21.6667 5.41667 21.6667H48.75C51.7373 21.6667 54.1667 19.2373 54.1667 16.25V5.41667C54.1667 2.42937 51.7373 0 48.75 0ZM5.41667 16.25V5.41667H48.75L48.7554 16.25H5.41667ZM48.75 27.0833H5.41667C2.42937 27.0833 0 29.5127 0 32.5V43.3333C0 46.3206 2.42937 48.75 5.41667 48.75H48.75C51.7373 48.75 54.1667 46.3206 54.1667 43.3333V32.5C54.1667 29.5127 51.7373 27.0833 48.75 27.0833ZM5.41667 43.3333V32.5H48.75L48.7554 43.3333H5.41667Z" fill="white"/>
<path d="M40.625 8.125H46.0417V13.5417H40.625V8.125ZM32.5 8.125H37.9167V13.5417H32.5V8.125ZM40.625 35.2083H46.0417V40.625H40.625V35.2083ZM32.5 35.2083H37.9167V40.625H32.5V35.2083Z" fill="white"/>
</svg>
