<svg width="74" height="71" viewBox="0 0 74 71" fill="none" xmlns="http://www.w3.org/2000/svg">
<path d="M37.3547 71C47.0736 71 56.3945 67.2598 63.2668 60.6023C70.1392 53.9447 74 44.9152 74 35.5C74 26.0848 70.1392 17.0553 63.2668 10.3977C56.3945 3.74017 47.0736 0 37.3547 0C27.6357 0 18.3148 3.74017 11.4425 10.3977C4.57018 17.0553 0.709343 26.0848 0.709343 35.5C0.709343 44.9152 4.57018 53.9447 11.4425 60.6023C18.3148 67.2598 27.6357 71 37.3547 71V71ZM21.3223 37.7188C20.7149 37.7188 20.1324 37.485 19.7028 37.0689C19.2733 36.6528 19.032 36.0884 19.032 35.5C19.032 34.9116 19.2733 34.3472 19.7028 33.9311C20.1324 33.515 20.7149 33.2813 21.3223 33.2813L47.8581 33.2812L38.0234 23.7584C37.8105 23.5521 37.6416 23.3072 37.5263 23.0377C37.4111 22.7681 37.3518 22.4792 37.3518 22.1875C37.3518 21.8958 37.4111 21.6069 37.5263 21.3373C37.6416 21.0678 37.8105 20.8229 38.0234 20.6166C38.2364 20.4103 38.4892 20.2467 38.7674 20.1351C39.0457 20.0234 39.3439 19.966 39.645 19.966C39.9462 19.966 40.2444 20.0234 40.5226 20.1351C40.8008 20.2467 41.0536 20.4103 41.2666 20.6166L55.0086 33.9291C55.2218 34.1352 55.3911 34.3801 55.5065 34.6496C55.622 34.9192 55.6814 35.2082 55.6814 35.5C55.6814 35.7918 55.622 36.0808 55.5065 36.3504C55.3911 36.6199 55.2218 36.8648 55.0086 37.0709L41.2666 50.3834C40.8365 50.8 40.2532 51.0341 39.645 51.0341C39.0368 51.0341 38.4535 50.8 38.0234 50.3834C37.5934 49.9668 37.3518 49.4017 37.3518 48.8125C37.3518 48.2233 37.5934 47.6582 38.0234 47.2416L47.8581 37.7188L21.3223 37.7188Z" fill="#BEBDEE"/>
</svg>
