<svg width="74" height="71" viewBox="0 0 74 71" fill="none" xmlns="http://www.w3.org/2000/svg">
<path d="M36.6453 0C26.9264 0 17.6055 3.74017 10.7332 10.3977C3.86084 17.0553 0 26.0848 0 35.5C0 44.9152 3.86084 53.9448 10.7332 60.6023C17.6055 67.2598 26.9264 71 36.6453 71C46.3643 71 55.6852 67.2598 62.5575 60.6023C69.4298 53.9448 73.2907 44.9152 73.2907 35.5C73.2907 26.0848 69.4298 17.0553 62.5575 10.3977C55.6852 3.74017 46.3643 0 36.6453 0V0ZM52.6777 33.2812C53.2851 33.2812 53.8676 33.515 54.2972 33.9311C54.7267 34.3472 54.968 34.9116 54.968 35.5C54.968 36.0884 54.7267 36.6528 54.2972 37.0689C53.8676 37.485 53.2851 37.7188 52.6777 37.7188H26.1419L35.9766 47.2416C36.1895 47.4479 36.3584 47.6928 36.4737 47.9623C36.5889 48.2319 36.6482 48.5208 36.6482 48.8125C36.6482 49.1042 36.5889 49.3931 36.4737 49.6627C36.3584 49.9322 36.1895 50.1771 35.9766 50.3834C35.7636 50.5897 35.5108 50.7533 35.2326 50.8649C34.9543 50.9766 34.6561 51.034 34.355 51.034C34.0538 51.034 33.7556 50.9766 33.4774 50.8649C33.1992 50.7533 32.9464 50.5897 32.7334 50.3834L18.9914 37.0709C18.7782 36.8648 18.6089 36.6199 18.4935 36.3504C18.378 36.0808 18.3186 35.7918 18.3186 35.5C18.3186 35.2082 18.378 34.9192 18.4935 34.6496C18.6089 34.3801 18.7782 34.1352 18.9914 33.9291L32.7334 20.6166C33.1635 20.2 33.7468 19.9659 34.355 19.9659C34.9632 19.9659 35.5465 20.2 35.9766 20.6166C36.4066 21.0332 36.6482 21.5983 36.6482 22.1875C36.6482 22.7767 36.4066 23.3418 35.9766 23.7584L26.1419 33.2812H52.6777Z" fill="#BEBDEE"/>
</svg>
