<svg width="91" height="90" viewBox="0 0 91 90" fill="none" xmlns="http://www.w3.org/2000/svg">
<path d="M48.4479 41.5282C48.4479 43.3647 47.7183 45.1259 46.4198 46.4245C45.1212 47.723 43.36 48.4525 41.5236 48.4525C39.6871 48.4525 37.9259 47.723 36.6273 46.4245C35.3288 45.1259 34.5992 43.3647 34.5992 41.5282C34.5992 39.6918 35.3288 37.9306 36.6273 36.632C37.9259 35.3334 39.6871 34.6039 41.5236 34.6039C43.36 34.6039 45.1212 35.3334 46.4198 36.632C47.7183 37.9306 48.4479 39.6918 48.4479 41.5282ZM41.5236 17.2932C35.672 17.2917 30.0176 19.4075 25.6042 23.2497C21.1909 27.092 18.3168 32.4013 17.5125 38.1973C16.7083 43.9933 18.0282 49.8846 21.2287 54.7833C24.4291 59.6821 29.2938 63.2574 34.9247 64.8493C35.5617 64.0461 36.2403 63.2775 36.9743 62.5435L40.6996 58.8182C37.3497 58.6588 34.1182 57.5298 31.3979 55.5684C28.6777 53.6069 26.5857 50.8975 25.3763 47.7695C24.1669 44.6415 23.8922 41.2295 24.5855 37.9483C25.2789 34.6671 26.9104 31.6579 29.2818 29.2865C31.6532 26.9151 34.6624 25.2835 37.9436 24.5902C41.2248 23.8969 44.6368 24.1716 47.7648 25.381C50.8929 26.5904 53.6022 28.6823 55.5637 31.4026C57.5251 34.1229 58.6542 37.3544 58.8136 40.7042L64.7892 34.7286C63.3162 29.699 60.253 25.2823 56.0585 22.1402C51.8641 18.9981 46.7644 17.2999 41.5236 17.3001V17.2932ZM73.6385 28.559C70.6253 21.1108 65.1159 14.9422 58.0542 11.1099C50.9924 7.27766 42.8178 6.02026 34.9308 7.55314C27.0438 9.08603 19.9353 13.3138 14.823 19.5121C9.71074 25.7105 6.91296 33.4936 6.90894 41.5282C6.90829 48.7292 9.15207 55.7512 13.3281 61.6176C17.5042 67.4839 23.4049 71.9028 30.2092 74.2594C30.1688 74.4045 30.1295 74.5499 30.0915 74.6957L28.5197 80.9968C21.8189 78.7843 15.7921 74.9014 11.0076 69.7145C6.22309 64.5275 2.83863 58.2073 1.17338 51.35C-0.491871 44.4927 -0.383032 37.3242 1.48963 30.5206C3.3623 23.7169 6.93707 17.5024 11.8768 12.4631C16.8166 7.42377 22.9585 3.72569 29.7234 1.71763C36.4883 -0.290433 43.6532 -0.542305 50.5424 0.985769C57.4316 2.51384 63.818 5.7715 69.0994 10.4515C74.3809 15.1315 78.3832 21.0797 80.729 27.735C78.3318 27.527 75.9173 27.8073 73.6316 28.559H73.6385ZM43.6424 65.6664L65.6617 43.6471L71.5543 37.7545C72.557 36.7497 73.748 35.9526 75.0591 35.4088C76.3703 34.8649 77.7758 34.5849 79.1953 34.5849C80.6147 34.5849 82.0202 34.8649 83.3314 35.4088C84.6425 35.9526 85.8335 36.7497 86.8362 37.7545C91.0601 41.9783 91.0601 48.8126 86.8362 53.0364L57.1448 82.7209C54.6805 85.1843 51.593 86.9315 48.2124 87.7757L39.834 89.8737C39.1268 90.0507 38.3858 90.0415 37.6832 89.8472C36.9805 89.6529 36.3401 89.28 35.8243 88.7649C35.3085 88.2497 34.9347 87.6099 34.7395 86.9075C34.5442 86.2051 34.5341 85.4641 34.71 84.7567L35.2501 82.6032L36.8081 76.3713L36.9466 75.852C37.8398 72.6738 39.5294 69.7794 41.8628 67.4459L43.6424 65.6664Z" fill="#F24E1E"/>
</svg>
