<svg width="45" height="45" viewBox="0 0 45 45" fill="none" xmlns="http://www.w3.org/2000/svg">
<path d="M22.5 0C10.0735 0 0 10.0735 0 22.5C0 34.9265 10.0735 45 22.5 45C34.9265 45 45 34.9265 45 22.5C45 10.0735 34.9265 0 22.5 0Z" fill="#40B3E0"/>
<path d="M33.4482 12.9427L29.4293 33.2048C29.4293 33.2048 28.8674 34.61 27.3217 33.9355L18.0479 26.8255L14.6757 25.1957L8.99899 23.2846C8.99899 23.2846 8.12782 22.9756 8.04344 22.3011C7.95907 21.6266 9.02712 21.2613 9.02712 21.2613L31.5932 12.409C31.5932 12.409 33.4481 11.5941 33.4481 12.943" fill="white"/>
<path d="M17.3351 32.9771C17.3351 32.9771 17.0644 32.9518 16.7269 31.8837C16.3899 30.8159 14.6755 25.1954 14.6755 25.1954L28.3053 16.54C28.3053 16.54 29.0922 16.0622 29.0641 16.54C29.0641 16.54 29.2046 16.6244 28.7829 17.0178C28.3615 17.4113 18.076 26.6569 18.076 26.6569" fill="#D2E5F1"/>
<path d="M21.6038 29.5516L17.9358 32.896C17.9358 32.896 17.6489 33.1137 17.3353 32.9772L18.0377 26.7651" fill="#B5CFE4"/>
</svg>
