<svg width="45" height="45" viewBox="0 0 45 45" fill="none" xmlns="http://www.w3.org/2000/svg">
<rect x="3.375" y="2.25" width="39.375" height="39.375" fill="white"/>
<path d="M40.1786 0H4.82143C2.1596 0 0 2.1596 0 4.82143V40.1786C0 42.8404 2.1596 45 4.82143 45H40.1786C42.8404 45 45 42.8404 45 40.1786V4.82143C45 2.1596 42.8404 0 40.1786 0ZM35.2667 15.9509C35.2868 16.2321 35.2868 16.5234 35.2868 16.8047C35.2868 25.5134 28.6574 35.548 16.5435 35.548C12.8069 35.548 9.34152 34.4632 6.42857 32.5949C6.96094 32.6551 7.47321 32.6752 8.01562 32.6752C11.0993 32.6752 13.9319 31.6306 16.192 29.8627C13.2991 29.8025 10.8683 27.904 10.0346 25.2924C11.0491 25.4431 11.9632 25.4431 13.0078 25.1719C9.99442 24.5592 7.73437 21.9074 7.73437 18.7031V18.6228C8.60826 19.115 9.63281 19.4163 10.7076 19.4565C9.804 18.8554 9.06326 18.04 8.55148 17.0831C8.03969 16.1261 7.77278 15.0573 7.77455 13.9721C7.77455 12.7467 8.09598 11.6217 8.66853 10.6473C11.9129 14.6451 16.7846 17.2567 22.2489 17.5379C21.3147 13.0681 24.6596 9.44196 28.6775 9.44196C30.5759 9.44196 32.2835 10.2355 33.4888 11.5212C34.9754 11.24 36.4018 10.6875 37.6674 9.93415C37.1752 11.4609 36.1406 12.7467 34.7746 13.5603C36.1004 13.4196 37.3862 13.048 38.5714 12.5357C37.6775 13.8516 36.5525 15.0167 35.2667 15.9509Z" fill="#4EA6E9"/>
</svg>
