<svg width="45" height="45" viewBox="0 0 45 45" fill="none" xmlns="http://www.w3.org/2000/svg">
<rect x="5.62482" y="5.62476" width="33.7489" height="33.7489" fill="white"/>
<path d="M29.4066 0H15.5934C2.98819 0 0 2.98819 0 15.5934V29.4066C0 42.0118 2.98819 45 15.5934 45H29.4066C42.0118 45 45 42.0118 45 29.4066V15.5934C45 2.98819 41.9823 0 29.4066 0ZM36.3279 32.1009H33.0613C31.8238 32.1009 31.4428 31.1193 29.2167 28.8638C27.2832 26.9893 26.4268 26.7404 25.9501 26.7404C25.2766 26.7404 25.0853 26.9303 25.0853 27.8541V30.8058C25.0853 31.5974 24.8364 32.0727 22.7412 32.0727C19.2763 32.0727 15.4317 29.9775 12.736 26.0739C8.67067 20.3534 7.55836 16.0687 7.55836 15.1828C7.55836 14.7061 7.74819 14.2603 8.66364 14.2603H11.9373C12.7655 14.2603 13.0805 14.6414 13.4025 15.5273C15.0211 20.2001 17.7168 24.2936 18.8291 24.2936C19.2397 24.2936 19.4295 24.1038 19.4295 23.0562V18.2301C19.3044 16.004 18.133 15.8128 18.133 15.0225C18.133 14.6414 18.448 14.2603 18.9528 14.2603H24.101C24.797 14.2603 25.053 14.6414 25.053 15.4612V21.972C25.053 22.6751 25.368 22.924 25.5578 22.924C25.9684 22.924 26.32 22.6751 27.0807 21.9129C29.4319 19.2763 31.1165 15.2109 31.1165 15.2109C31.3359 14.7342 31.717 14.2885 32.5452 14.2885H35.8189C36.8004 14.2885 37.0198 14.7933 36.8004 15.4964C36.3898 17.4004 32.3835 23.0548 32.3835 23.0548C32.039 23.6257 31.9068 23.8746 32.3835 24.5116C32.7351 24.9883 33.8783 25.9768 34.6391 26.8628C36.0382 28.4518 37.114 29.7848 37.4009 30.7073C37.7229 31.6228 37.2476 32.0995 36.3237 32.0995L36.3279 32.1009Z" fill="#4E7DB2"/>
</svg>
