<svg width="45" height="45" viewBox="0 0 45 45" fill="none" xmlns="http://www.w3.org/2000/svg">
<path d="M11.8936 38.6757L12.6292 39.0406C15.6948 40.8649 19.1279 41.7163 22.5612 41.7163C33.3514 41.7163 42.1797 32.9595 42.1797 22.2568C42.1797 17.1488 40.0951 12.1623 36.4168 8.51355C32.7383 4.86485 27.8335 2.79736 22.5612 2.79736C11.7711 2.79736 2.9426 11.5541 3.06529 22.3785C3.06529 26.027 4.16883 29.5542 6.008 32.5946L6.49842 33.3244L4.53673 40.5001L11.8936 38.6757Z" fill="#00E676"/>
<path d="M38.5013 6.56756C34.3324 2.31088 28.5695 0 22.6839 0C10.1772 0 0.122693 10.0946 0.245211 22.3783C0.245211 26.2702 1.34875 30.0406 3.18809 33.4459L0 45L11.8937 41.9594C15.2043 43.7839 18.8827 44.6353 22.5613 44.6353C34.9455 44.6353 45 34.5405 45 22.257C45 16.2974 42.6702 10.7027 38.5015 6.56756H38.5013ZM22.6839 40.865C19.3733 40.865 16.0626 40.0138 13.2424 38.3111L12.5068 37.9462L5.39517 39.7704L7.23434 32.8381L6.74392 32.1083C1.34875 23.4732 3.92373 12.0405 12.752 6.68908C21.5803 1.33782 32.9836 3.89192 38.3788 12.6487C43.7738 21.4054 41.1988 32.7163 32.3707 38.0677C29.5503 39.892 26.1172 40.8648 22.6839 40.8648V40.865ZM33.474 27.3652L32.1253 26.757C32.1253 26.757 30.1636 25.9057 28.9374 25.2975C28.8147 25.2975 28.6922 25.1758 28.5695 25.1758C28.2016 25.1758 27.9563 25.2975 27.7111 25.4192C27.7111 25.4192 27.5886 25.5407 25.872 27.4867C25.7493 27.7299 25.5041 27.8516 25.2588 27.8516H25.1362C25.0136 27.8516 24.7684 27.7299 24.6457 27.6084L24.0326 27.3652C22.6839 26.757 21.4578 26.0272 20.4768 25.0543C20.2316 24.8111 19.8637 24.5678 19.6185 24.3246C18.7601 23.4732 17.9018 22.5002 17.2889 21.4056L17.1662 21.1624C17.0437 21.0407 17.0437 20.9191 16.921 20.6759C16.921 20.4327 16.921 20.1895 17.0437 20.0678C17.0437 20.0678 17.5341 19.4596 17.9018 19.0949C18.1472 18.8515 18.2697 18.4867 18.5149 18.2435C18.7601 17.8786 18.8828 17.3921 18.7601 17.0272C18.6376 16.4191 17.1662 13.1353 16.7984 12.4056C16.5531 12.0407 16.308 11.9192 15.9401 11.7975H14.5914C14.346 11.7975 14.101 11.9192 13.8556 11.9192L13.7329 12.0407C13.4877 12.1624 13.2424 12.4056 12.9972 12.5271C12.752 12.7705 12.6293 13.0136 12.3841 13.257C11.5258 14.3516 11.0354 15.6894 11.0354 17.0272C11.0354 18.0001 11.2806 18.9732 11.6485 19.8245L11.7712 20.1895C12.8747 22.5002 14.346 24.5678 16.308 26.3921L16.7984 26.8785C17.1662 27.2435 17.5341 27.4867 17.7793 27.8514C20.3543 30.0408 23.297 31.6218 26.6076 32.4732C26.9755 32.5947 27.4659 32.5947 27.8338 32.7164H29.0599C29.673 32.7164 30.4086 32.4732 30.8992 32.23C31.267 31.9868 31.5122 31.9868 31.7574 31.7435L32.0028 31.5001C32.248 31.2569 32.4932 31.1354 32.7384 30.8922C32.9836 30.6489 33.2288 30.4057 33.3515 30.1623C33.5967 29.6759 33.7192 29.0677 33.8419 28.4598V27.6084C33.8419 27.6084 33.7192 27.4867 33.474 27.3652Z" fill="white"/>
</svg>
